<svg width="1200" height="800" viewBox="0 0 1200 800" xmlns="http://www.w3.org/2000/svg" role="img" aria-label="Bold and Vibrant template preview">
  <defs>
    <linearGradient id="bg" x1="0" y1="0" x2="1" y2="1">
      <stop offset="0%" stop-color="#2b0f08"/>
      <stop offset="100%" stop-color="#14090d"/>
    </linearGradient>
    <linearGradient id="hero" x1="0" y1="0" x2="1" y2="0">
      <stop offset="0%" stop-color="#ff6b35"/>
      <stop offset="100%" stop-color="#ff9f43"/>
    </linearGradient>
  </defs>
  <rect width="1200" height="800" fill="url(#bg)"/>
  <circle cx="110" cy="120" r="120" fill="#ff6b35" opacity="0.25"/>
  <circle cx="1080" cy="740" r="160" fill="#ff6b35" opacity="0.18"/>
  <rect x="72" y="64" width="1056" height="90" rx="18" fill="#301a15"/>
  <rect x="102" y="100" width="230" height="20" rx="10" fill="#ffb36a"/>
  <rect x="72" y="188" width="1056" height="278" rx="26" fill="url(#hero)"/>
  <rect x="116" y="244" width="404" height="34" rx="12" fill="#fff0e6"/>
  <rect x="116" y="294" width="512" height="18" rx="9" fill="#ffd6bf"/>
  <rect x="116" y="326" width="420" height="18" rx="9" fill="#ffd6bf" opacity="0.82"/>
  <rect x="116" y="368" width="210" height="52" rx="12" fill="#2b0f08"/>
  <rect x="72" y="502" width="332" height="226" rx="20" fill="#2f1f1a"/>
  <rect x="434" y="502" width="332" height="226" rx="20" fill="#2f1f1a"/>
  <rect x="796" y="502" width="332" height="226" rx="20" fill="#2f1f1a"/>
</svg>
