<svg width="1200" height="800" viewBox="0 0 1200 800" xmlns="http://www.w3.org/2000/svg" role="img" aria-label="Elegant Luxury template preview">
  <defs>
    <linearGradient id="bg" x1="0" y1="0" x2="1" y2="1">
      <stop offset="0%" stop-color="#1b1508"/>
      <stop offset="100%" stop-color="#0f0b05"/>
    </linearGradient>
    <linearGradient id="gold" x1="0" y1="0" x2="1" y2="1">
      <stop offset="0%" stop-color="#f5d77f"/>
      <stop offset="100%" stop-color="#b88a1f"/>
    </linearGradient>
  </defs>
  <rect width="1200" height="800" fill="url(#bg)"/>
  <rect x="86" y="78" width="1028" height="64" rx="10" fill="#2d2412"/>
  <rect x="114" y="98" width="188" height="24" rx="10" fill="url(#gold)"/>
  <rect x="86" y="172" width="1028" height="256" rx="18" fill="#231d10"/>
  <rect x="118" y="212" width="340" height="28" rx="10" fill="#f9f2dc"/>
  <rect x="118" y="254" width="512" height="14" rx="7" fill="#d6c28a"/>
  <rect x="118" y="280" width="442" height="14" rx="7" fill="#d6c28a" opacity="0.7"/>
  <rect x="118" y="328" width="170" height="42" rx="10" fill="url(#gold)"/>
  <rect x="770" y="206" width="296" height="188" rx="14" fill="#312611"/>
  <circle cx="918" cy="300" r="74" fill="#d4af37" opacity="0.28"/>
  <rect x="86" y="460" width="238" height="262" rx="14" fill="#241d0f"/>
  <rect x="344" y="460" width="238" height="262" rx="14" fill="#241d0f"/>
  <rect x="602" y="460" width="238" height="262" rx="14" fill="#241d0f"/>
  <rect x="860" y="460" width="254" height="262" rx="14" fill="#241d0f"/>
</svg>
