<svg width="1200" height="800" viewBox="0 0 1200 800" xmlns="http://www.w3.org/2000/svg" role="img" aria-label="Tech and Gadgets template preview">
  <defs>
    <linearGradient id="bg" x1="0" y1="0" x2="1" y2="1">
      <stop offset="0%" stop-color="#0c1228"/>
      <stop offset="100%" stop-color="#111a36"/>
    </linearGradient>
    <linearGradient id="neon" x1="0" y1="0" x2="1" y2="0">
      <stop offset="0%" stop-color="#667eea"/>
      <stop offset="100%" stop-color="#7f9bff"/>
    </linearGradient>
  </defs>
  <rect width="1200" height="800" fill="url(#bg)"/>
  <rect x="72" y="66" width="1056" height="78" rx="14" fill="#1a264d"/>
  <rect x="106" y="92" width="236" height="24" rx="8" fill="url(#neon)"/>
  <rect x="72" y="172" width="1056" height="214" rx="20" fill="#182548"/>
  <rect x="108" y="214" width="410" height="30" rx="10" fill="#e9eeff"/>
  <rect x="108" y="258" width="502" height="14" rx="7" fill="#9eb2ff"/>
  <rect x="108" y="282" width="448" height="14" rx="7" fill="#9eb2ff" opacity="0.72"/>
  <rect x="108" y="324" width="182" height="40" rx="10" fill="url(#neon)"/>
  <rect x="720" y="196" width="380" height="160" rx="14" fill="#243567"/>
  <rect x="72" y="416" width="248" height="306" rx="14" fill="#182548"/>
  <rect x="344" y="416" width="248" height="306" rx="14" fill="#182548"/>
  <rect x="616" y="416" width="248" height="306" rx="14" fill="#182548"/>
  <rect x="888" y="416" width="240" height="306" rx="14" fill="#182548"/>
  <circle cx="1038" cy="246" r="54" fill="#667eea" opacity="0.35"/>
</svg>
